<svg width="224" height="224" viewBox="0 0 224 224" fill="none" xmlns="http://www.w3.org/2000/svg">
<path fill-rule="evenodd" clip-rule="evenodd" d="M111.951 122.681C112.166 122.681 112.655 122.739 113.026 122.827C113.398 122.905 113.973 123.11 114.296 123.286C114.618 123.462 115.137 123.853 115.439 124.166C115.811 124.527 116.124 124.967 116.339 125.436C116.525 125.817 116.729 126.423 116.778 126.774C116.856 127.204 116.886 136.829 116.886 186.624L117.55 186.966C117.911 187.151 118.537 187.553 118.938 187.855C119.338 188.158 119.964 188.706 120.325 189.077C120.687 189.448 121.195 190.034 121.449 190.386C121.713 190.737 122.123 191.422 122.377 191.9C122.621 192.389 122.964 193.219 123.13 193.757C123.296 194.294 123.472 195.017 123.53 195.369C123.579 195.721 123.628 196.551 123.628 197.226C123.628 197.9 123.569 198.8 123.491 199.229C123.413 199.659 123.228 200.383 123.091 200.842C122.944 201.301 122.67 201.984 122.475 202.355C122.289 202.736 121.938 203.352 121.693 203.724C121.449 204.105 120.755 204.886 120.159 205.482C119.456 206.176 118.782 206.733 118.254 207.065C117.795 207.349 117.072 207.73 116.642 207.926C116.212 208.111 115.42 208.385 114.883 208.531C113.974 208.776 113.769 208.795 112 208.795C110.261 208.795 110.016 208.776 109.166 208.541C108.658 208.404 107.847 208.121 107.358 207.916C106.87 207.711 106.088 207.28 105.6 206.958C105.091 206.626 104.32 205.99 103.782 205.443C103.264 204.925 102.629 204.173 102.355 203.772C102.082 203.372 101.731 202.777 101.574 202.454C101.408 202.132 101.153 201.535 101.017 201.135C100.87 200.734 100.665 199.972 100.567 199.454C100.431 198.799 100.372 198.095 100.372 197.255C100.372 196.561 100.431 195.653 100.509 195.223C100.587 194.793 100.772 194.07 100.909 193.61C101.056 193.151 101.379 192.379 101.623 191.9C101.877 191.422 102.326 190.689 102.629 190.288C102.932 189.887 103.548 189.203 103.997 188.773C104.446 188.344 105.131 187.787 105.502 187.533C105.873 187.289 106.391 186.976 107.114 186.624V157.065C107.114 137.484 107.153 127.273 107.222 126.823C107.28 126.423 107.456 125.846 107.651 125.436C107.876 124.967 108.189 124.527 108.561 124.166C108.863 123.853 109.382 123.462 109.704 123.296C110.026 123.13 110.485 122.944 110.729 122.886C110.974 122.827 111.258 122.759 111.365 122.729C111.473 122.71 111.736 122.69 111.951 122.681ZM111.932 191.764C111.56 191.764 111.023 191.832 110.729 191.9C110.436 191.979 109.87 192.193 109.489 192.379C109.011 192.613 108.571 192.936 108.17 193.347C107.828 193.689 107.417 194.226 107.251 194.549C107.085 194.861 106.86 195.369 106.763 195.662C106.626 196.053 106.577 196.473 106.577 197.226C106.587 198.017 106.636 198.398 106.802 198.887C106.919 199.238 107.183 199.786 107.388 200.108C107.603 200.431 107.945 200.871 108.15 201.076C108.356 201.281 108.795 201.623 109.117 201.838C109.44 202.043 109.987 202.308 110.339 202.425C110.827 202.591 111.199 202.64 112 202.64C112.801 202.64 113.173 202.591 113.661 202.425C114.013 202.308 114.56 202.043 114.883 201.838C115.205 201.633 115.683 201.252 115.938 200.988C116.201 200.715 116.554 200.236 116.729 199.913C116.915 199.591 117.14 199.082 117.237 198.789C117.364 198.418 117.423 197.958 117.423 197.274C117.423 196.728 117.364 196.083 117.286 195.81C117.208 195.536 116.993 195.018 116.798 194.637C116.593 194.236 116.201 193.708 115.84 193.347C115.39 192.897 115.009 192.633 114.423 192.35C113.974 192.135 113.378 191.92 113.104 191.861C112.821 191.803 112.293 191.754 111.932 191.764Z" fill="#00C950"/>
<path fill-rule="evenodd" clip-rule="evenodd" d="M111.756 15C113.427 15 115.401 15.039 116.153 15.0879C116.906 15.1465 118.273 15.2832 119.182 15.3906C120.09 15.4981 121.654 15.7431 122.65 15.9189C123.647 16.1046 125.358 16.4754 126.462 16.749C127.566 17.0226 129.432 17.5799 130.614 17.9707C131.796 18.3615 133.467 18.9773 134.327 19.3389C135.187 19.7003 136.643 20.3542 137.552 20.7939C138.46 21.2336 139.829 21.9372 140.581 22.3672C141.333 22.7874 142.477 23.4617 143.122 23.8623C143.767 24.2629 144.715 24.8787 145.223 25.2305C145.731 25.5822 146.747 26.3249 147.47 26.8721C148.193 27.4192 149.454 28.4351 150.255 29.1191C151.056 29.8129 152.493 31.142 153.44 32.0898C154.388 33.0279 155.639 34.357 156.226 35.0312C156.812 35.7055 157.799 36.9176 158.424 37.7188C159.049 38.5199 160.026 39.858 160.593 40.6885C161.15 41.5189 162.009 42.8677 162.498 43.6689C162.977 44.4799 163.788 45.9457 164.296 46.9424C164.804 47.939 165.508 49.4145 165.859 50.2158C166.211 51.0268 166.661 52.1213 167.218 53.6357L171.342 53.7041C173.97 53.7432 175.963 53.831 176.833 53.9287C177.585 54.0069 178.836 54.1933 179.618 54.3301C180.4 54.4669 181.689 54.7499 182.5 54.9551C183.301 55.1603 184.425 55.4823 184.992 55.668C185.559 55.8536 186.546 56.2157 187.19 56.4697C187.835 56.7238 188.911 57.1932 189.585 57.5156C190.259 57.8283 191.285 58.3553 191.881 58.6875C192.477 59.01 193.64 59.7331 194.471 60.2803C195.301 60.8372 196.581 61.7653 197.304 62.3516C198.027 62.9281 199.297 64.062 200.128 64.873C200.949 65.6743 202.082 66.8668 202.619 67.5117C203.166 68.1566 203.88 69.0359 204.202 69.4658C204.534 69.8958 205.101 70.7067 205.482 71.2734C205.854 71.8402 206.421 72.739 206.733 73.2764C207.056 73.8138 207.603 74.8492 207.965 75.5723C208.326 76.2953 208.834 77.4 209.088 78.0156C209.342 78.6312 209.743 79.7154 209.978 80.4092C210.212 81.1127 210.583 82.3443 210.788 83.1455C211.003 83.9565 211.277 85.2076 211.414 85.9307C211.541 86.6537 211.727 87.8649 211.824 88.6172C211.961 89.6823 212 90.6792 212 93.1123C212 95.77 211.961 96.4836 211.775 97.8516C211.658 98.7405 211.453 100.01 211.316 100.685C211.18 101.359 210.964 102.346 210.827 102.884C210.69 103.421 210.329 104.632 210.017 105.57C209.704 106.508 209.235 107.75 208.99 108.336C208.746 108.912 208.287 109.899 207.975 110.534C207.662 111.16 207.193 112.05 206.929 112.509C206.675 112.968 206.01 114.023 205.463 114.854C204.906 115.684 203.988 116.964 203.401 117.688C202.825 118.411 201.515 119.847 200.489 120.863C199.463 121.889 198.095 123.149 197.45 123.657C196.805 124.175 195.838 124.898 195.301 125.279C194.763 125.66 193.728 126.335 193.005 126.774C192.282 127.204 191.177 127.82 190.562 128.133C189.946 128.455 188.823 128.973 188.07 129.296C187.318 129.609 186.243 130.028 185.676 130.224L185.521 130.274C184.966 130.456 184.238 130.696 183.819 130.82C183.36 130.957 182.305 131.23 181.475 131.416C180.644 131.611 179.208 131.875 178.299 132.002C177.39 132.129 175.846 132.285 174.879 132.344C173.872 132.402 168.938 132.442 163.349 132.442C155.209 132.442 153.43 132.472 152.697 132.589C152.219 132.667 151.555 132.794 151.232 132.882C150.91 132.97 150.226 133.194 149.718 133.39C149.21 133.585 148.545 133.878 148.252 134.034C147.959 134.191 147.558 134.416 147.372 134.523C147.186 134.641 146.698 134.973 146.298 135.266C145.897 135.559 145.242 136.106 144.842 136.487C144.451 136.868 143.845 137.533 143.513 137.963C143.171 138.393 142.682 139.096 142.418 139.526C142.164 139.956 141.783 140.68 141.588 141.139C141.392 141.598 141.118 142.341 140.991 142.8C140.854 143.259 140.669 144.031 140.571 144.51C140.405 145.311 140.396 146.271 140.327 166.495L140.796 166.72C141.05 166.847 141.636 167.199 142.096 167.502C142.555 167.805 143.298 168.429 143.757 168.889C144.216 169.348 144.842 170.091 145.145 170.55C145.447 171.009 145.828 171.654 145.994 171.996C146.16 172.328 146.425 172.983 146.591 173.462C146.747 173.931 146.942 174.732 147.021 175.24C147.108 175.748 147.177 176.608 147.177 177.146C147.177 177.683 147.108 178.533 147.03 179.031C146.952 179.52 146.767 180.272 146.63 180.692C146.493 181.103 146.238 181.758 146.062 182.129C145.887 182.51 145.477 183.214 145.154 183.692C144.822 184.171 144.187 184.943 143.737 185.383C143.298 185.832 142.526 186.468 142.047 186.79C141.568 187.113 140.904 187.504 140.581 187.65C140.259 187.807 139.662 188.041 139.262 188.178C138.861 188.314 138.197 188.5 137.797 188.588C137.308 188.695 136.585 188.754 135.646 188.754C134.845 188.764 133.907 188.715 133.497 188.637C133.096 188.568 132.393 188.383 131.934 188.236C131.474 188.09 130.771 187.807 130.37 187.602C129.969 187.396 129.305 187.015 128.904 186.741C128.504 186.468 127.771 185.852 127.282 185.363C126.794 184.875 126.158 184.122 125.875 183.692C125.582 183.262 125.162 182.51 124.928 182.031C124.703 181.552 124.399 180.712 124.263 180.175C124.126 179.637 123.97 178.739 123.911 178.172C123.833 177.459 123.833 176.833 123.911 176.12C123.96 175.554 124.126 174.655 124.263 174.117C124.409 173.541 124.722 172.7 125.035 172.064C125.328 171.468 125.827 170.638 126.14 170.208C126.462 169.778 127.087 169.084 127.517 168.674C127.956 168.254 128.64 167.707 129.031 167.453C129.422 167.189 129.95 166.876 130.663 166.495V153.743C130.663 143.259 130.683 140.796 130.8 139.868C130.878 139.253 131.035 138.325 131.152 137.816C131.26 137.308 131.514 136.429 131.699 135.862C131.885 135.296 132.295 134.308 132.607 133.663C132.92 133.018 133.477 132.032 133.858 131.465C134.23 130.898 134.885 130.029 135.314 129.521C135.735 129.012 136.438 128.28 136.868 127.889C137.298 127.498 138.021 126.892 138.48 126.55C138.94 126.208 139.731 125.68 140.239 125.377C140.747 125.084 141.519 124.674 141.949 124.479C142.379 124.283 143.239 123.941 143.854 123.735C144.47 123.52 145.506 123.237 146.151 123.11C146.796 122.974 147.832 122.827 148.447 122.769C149.132 122.71 154.379 122.671 161.98 122.671C169.729 122.671 174.79 122.632 175.465 122.573C176.061 122.515 177.067 122.377 177.712 122.27C178.357 122.162 179.452 121.928 180.155 121.742C180.859 121.566 181.884 121.254 182.451 121.059C183.018 120.863 183.79 120.569 184.161 120.403C184.532 120.237 185.177 119.954 185.578 119.769C185.979 119.583 186.77 119.162 187.337 118.84C187.903 118.508 188.802 117.951 189.34 117.59C189.877 117.228 190.797 116.544 191.393 116.056C191.989 115.577 192.917 114.746 193.454 114.209C194.001 113.681 194.783 112.84 195.203 112.361C195.614 111.882 196.278 111.042 196.669 110.505C197.06 109.967 197.676 109.049 198.037 108.453C198.399 107.867 198.887 106.988 199.131 106.499C199.375 106.02 199.747 105.248 199.942 104.789C200.148 104.33 200.509 103.363 200.753 102.64C201.007 101.917 201.31 100.88 201.447 100.343C201.584 99.8054 201.75 99.0138 201.838 98.584C201.916 98.154 202.053 97.2552 202.15 96.5811C202.268 95.7212 202.307 94.6854 202.307 93.0635C202.307 91.4904 202.258 90.3667 202.141 89.4971C202.053 88.8033 201.897 87.806 201.789 87.2979C201.682 86.7897 201.467 85.8615 201.301 85.2461C201.135 84.6305 200.802 83.5756 200.558 82.9014C200.323 82.2271 199.776 80.9761 199.355 80.1162C198.935 79.2563 198.252 78.0052 197.832 77.3311C197.402 76.6569 196.718 75.6702 196.308 75.1328C195.897 74.5955 195.125 73.6771 194.598 73.0908C194.07 72.4948 193.18 71.6058 192.613 71.0977C192.047 70.5896 191.187 69.8859 190.708 69.5146C190.229 69.1531 189.428 68.5959 188.949 68.2734C188.47 67.951 187.591 67.4132 186.995 67.0908C186.399 66.7587 185.364 66.2414 184.67 65.9482C183.986 65.6551 182.871 65.215 182.188 64.9805C181.494 64.746 180.371 64.4239 179.667 64.2578C178.963 64.0819 177.8 63.8467 177.077 63.7295C175.817 63.5243 175.396 63.5147 159.948 63.4072L159.724 62.4297C159.597 61.8921 159.313 60.8177 159.088 60.0361C158.873 59.2544 158.463 58.0033 158.199 57.251C157.926 56.4986 157.446 55.2777 157.134 54.5449C156.811 53.8023 156.196 52.4829 155.766 51.6133C155.326 50.7339 154.544 49.3169 154.026 48.457C153.508 47.5972 152.717 46.3656 152.268 45.7207C151.818 45.0758 151.046 44.0403 150.567 43.4248C150.079 42.8092 149.239 41.7933 148.691 41.1777C148.144 40.5622 146.992 39.3696 146.142 38.5391C145.282 37.7086 144.148 36.6536 143.61 36.2041C143.073 35.7547 142.067 34.9632 141.363 34.4355C140.66 33.9079 139.526 33.1067 138.822 32.6572C138.119 32.1981 137.005 31.5042 136.331 31.1133C135.657 30.7322 134.406 30.0676 133.546 29.6475C132.686 29.2273 131.279 28.6018 130.419 28.25C129.559 27.8983 128.397 27.4582 127.83 27.2725L127.732 27.2412C127.171 27.0574 126.406 26.8064 125.973 26.6865C125.513 26.5497 124.81 26.3545 124.409 26.2471C124.008 26.1395 123.061 25.9141 122.309 25.748C121.556 25.5917 120.217 25.3477 119.328 25.2109C118.439 25.0839 117.15 24.9083 116.446 24.8398C115.694 24.7714 113.886 24.7129 112 24.7129C110.114 24.7129 108.306 24.7714 107.554 24.8398C106.85 24.9083 105.561 25.0839 104.672 25.2109C103.783 25.3477 102.444 25.5917 101.691 25.7578C100.939 25.9142 99.7758 26.1981 99.1016 26.3838C98.4274 26.5597 97.1771 26.9501 96.3174 27.2334C95.4575 27.5265 94.1577 28.0057 93.4346 28.3086C92.7115 28.6017 91.519 29.1297 90.7959 29.4717C90.0728 29.8235 88.7933 30.4881 87.9629 30.9668C87.1323 31.4358 85.9008 32.1785 85.2266 32.6182C84.5525 33.0578 83.5658 33.741 83.0283 34.1416C82.4911 34.5323 81.7191 35.1286 81.3184 35.4512C80.9178 35.7736 80.0775 36.487 79.4619 37.0342C78.8463 37.5814 77.6831 38.7056 76.8721 39.5264C76.0708 40.3569 74.9856 41.5387 74.4678 42.1543C73.9499 42.7699 73.1682 43.7673 72.7188 44.3535C72.2791 44.9496 71.5959 45.9168 71.2051 46.5029C70.8143 47.0989 70.2375 47.9977 69.9346 48.5059C69.6219 49.014 68.9573 50.226 68.459 51.1934C67.9607 52.1607 67.3156 53.4996 67.0225 54.1738C66.7293 54.8481 66.2599 56.0007 65.9863 56.7432C65.7127 57.476 65.3321 58.6198 65.1367 59.2842C64.9413 59.9389 64.6086 61.1407 64.042 63.4072L56.1367 63.4658C48.5939 63.5147 48.1833 63.5243 46.9229 63.7295C46.1998 63.8467 45.0365 64.0819 44.333 64.2578C43.6295 64.4239 42.5159 64.746 41.8418 64.9707C41.1676 65.2052 40.0922 65.616 39.4473 65.8994C38.8023 66.1731 37.7473 66.6903 37.1025 67.042C36.4577 67.3937 35.4027 68.0388 34.7578 68.4785C34.113 68.9181 33.3216 69.4851 32.999 69.7393C32.6766 70.0031 31.9534 70.6189 31.3965 71.1074C30.8297 71.6058 29.9398 72.4948 29.4023 73.0811C28.8649 73.6771 28.0637 74.6443 27.624 75.2305C27.1746 75.8265 26.5002 76.8131 26.1191 77.4287C25.7283 78.0443 25.1623 79.0612 24.8496 79.6768C24.537 80.2923 24.0285 81.4156 23.7354 82.168C23.4324 82.9204 23.0323 84.0836 22.8369 84.7578C22.6415 85.4319 22.377 86.5064 22.25 87.1514C22.123 87.7963 21.9376 88.8717 21.8496 89.5459C21.7421 90.3862 21.6934 91.4807 21.6934 93.0635C21.6934 94.6464 21.7421 95.7407 21.8496 96.5811C21.9375 97.2551 22.123 98.3297 22.25 98.9746C22.377 99.6195 22.6415 100.695 22.8369 101.369C23.0323 102.043 23.4325 103.206 23.7354 103.958C24.0285 104.71 24.5662 105.903 24.9277 106.597C25.2893 107.3 25.866 108.306 26.208 108.844C26.5401 109.381 27.1257 110.231 27.4873 110.729C27.8586 111.218 28.4744 111.991 28.8555 112.44C29.2366 112.88 30.0183 113.701 30.5947 114.258C31.1614 114.815 32.0895 115.635 32.6562 116.095C33.223 116.544 34.1227 117.219 34.6602 117.58C35.1976 117.951 36.1258 118.527 36.7119 118.869C37.2981 119.201 38.3141 119.72 38.959 120.013C39.6039 120.306 40.6208 120.717 41.207 120.932C41.7934 121.147 42.8289 121.469 43.5029 121.654C44.177 121.84 45.3394 122.094 46.0918 122.23C46.8442 122.367 47.9489 122.515 48.5352 122.573C49.2 122.632 54.3592 122.671 62.0195 122.671C69.6212 122.671 74.8682 122.71 75.5527 122.769C76.1683 122.827 77.2047 122.974 77.8496 123.11C78.4945 123.237 79.5496 123.53 80.1943 123.745C80.8392 123.97 81.8551 124.381 82.4414 124.674C83.0277 124.967 84.0445 125.553 84.6895 125.974C85.3344 126.404 86.3016 127.146 86.8291 127.625C87.3665 128.094 88.1287 128.856 88.5293 129.315C88.9202 129.775 89.6043 130.674 90.0342 131.318C90.4739 131.963 91.0897 133.038 91.4121 133.712C91.7346 134.386 92.1639 135.442 92.3691 136.058C92.5646 136.673 92.829 137.64 92.9365 138.207C93.044 138.774 93.1806 139.634 93.2393 140.112C93.2979 140.66 93.3369 145.858 93.3369 166.495L93.6982 166.681C93.9034 166.778 94.4314 167.091 94.8809 167.384C95.3206 167.677 96.0437 168.254 96.4834 168.674C96.9133 169.084 97.5389 169.778 97.8613 170.208C98.1837 170.638 98.6327 171.371 98.8672 171.85C99.1017 172.319 99.415 173.042 99.5518 173.462C99.6886 173.872 99.8642 174.527 99.9326 174.898C100.001 175.28 100.089 175.983 100.128 176.462C100.167 176.941 100.147 177.761 100.089 178.27C100.03 178.778 99.8741 179.637 99.7373 180.175C99.6005 180.712 99.297 181.552 99.0723 182.031C98.8378 182.51 98.4181 183.262 98.125 183.692C97.8417 184.122 97.2063 184.875 96.7178 185.363C96.2293 185.842 95.4964 186.468 95.0957 186.741C94.6951 187.005 94.0305 187.396 93.6299 187.602C93.2292 187.807 92.5256 188.09 92.0664 188.236C91.6072 188.383 90.9035 188.568 90.5029 188.637C90.0925 188.715 89.1547 188.764 88.3535 188.754C87.4157 188.754 86.6927 188.695 86.2041 188.588C85.8036 188.5 85.1389 188.315 84.7383 188.178C84.3378 188.041 83.6536 187.758 83.2236 187.543C82.7937 187.318 82.0999 186.898 81.6699 186.595C81.2498 186.282 80.5754 185.705 80.1748 185.305C79.7742 184.904 79.1486 184.132 78.7871 183.595C78.4256 183.057 77.9757 182.246 77.7803 181.787C77.5946 181.328 77.3213 180.497 77.1748 179.931C76.9794 179.169 76.8916 178.563 76.8525 177.586C76.8135 176.609 76.8427 176.012 76.96 175.289C77.0479 174.752 77.2626 173.911 77.4287 173.433C77.5948 172.954 77.8593 172.289 78.0156 171.967C78.1818 171.644 78.5527 171.009 78.8555 170.55C79.1584 170.091 79.784 169.348 80.2432 168.889C80.7024 168.429 81.4549 167.815 81.9043 167.502C82.3635 167.199 82.9498 166.847 83.6729 166.495L83.6338 155.894C83.6045 146.417 83.585 145.204 83.4287 144.461C83.3408 144.002 83.1358 143.191 82.9697 142.653C82.8036 142.116 82.4806 141.276 82.2559 140.797C82.0311 140.318 81.5432 139.457 81.1719 138.891C80.7029 138.177 80.1255 137.503 79.3145 136.692C78.6207 135.999 77.8 135.295 77.3115 134.963C76.8522 134.66 76.0901 134.21 75.6016 133.966C75.113 133.722 74.3312 133.39 73.8428 133.214C73.3542 133.048 72.5725 132.823 72.084 132.706C71.2241 132.511 70.9017 132.501 59.9189 132.442C50.4896 132.384 48.4176 132.354 47.3135 132.217C46.5905 132.129 45.5355 131.992 44.9688 131.904C44.402 131.816 43.3949 131.611 42.7207 131.465C42.0465 131.309 41.1086 131.074 40.6201 130.938C40.1315 130.81 39.1937 130.507 38.5195 130.282C37.8453 130.057 36.6821 129.618 35.9297 129.296C35.1773 128.973 34.1711 128.514 33.6826 128.27C33.194 128.025 32.3441 127.556 31.7773 127.233C31.2107 126.911 30.2435 126.316 29.6279 125.905C29.0123 125.495 28.0638 124.83 27.5361 124.43C26.9987 124.029 26.0999 123.296 25.5332 122.808C24.9665 122.319 23.8628 121.263 23.0811 120.462C22.2994 119.661 21.1849 118.411 20.5986 117.688C20.0221 116.964 19.0941 115.684 18.5469 114.854C17.99 114.023 17.345 112.988 17.1006 112.558C16.8563 112.128 16.3869 111.247 16.0645 110.603C15.742 109.958 15.2735 108.951 15.0195 108.355C14.7655 107.769 14.3254 106.577 14.0322 105.717C13.7391 104.857 13.3195 103.451 13.1143 102.591C12.8993 101.731 12.6348 100.499 12.5273 99.8545C12.4199 99.2096 12.254 98.0854 12.166 97.3623C12.039 96.3755 12 95.2714 12 93.0146C12 90.7282 12.039 89.6627 12.166 88.666C12.2637 87.943 12.4296 86.8392 12.5371 86.2236C12.6446 85.608 12.8993 84.396 13.1143 83.5361C13.3292 82.6762 13.7391 81.269 14.0322 80.4092C14.3253 79.5494 14.7655 78.3676 15.0195 77.7715C15.2736 77.1852 15.7713 76.1 16.1426 75.377C16.5041 74.654 17.0808 73.599 17.4131 73.0322C17.755 72.4656 18.3709 71.4984 18.791 70.8828C19.2112 70.2672 20.0221 69.1625 20.5986 68.4395C21.1751 67.7164 22.4847 66.2799 23.5107 65.2539C24.5367 64.2377 25.9244 62.9573 26.5986 62.4199C27.2728 61.8825 28.2595 61.1398 28.7969 60.7686C29.3342 60.3875 30.3405 59.7434 31.0439 59.3135C31.7376 58.8934 33.0669 58.18 33.9756 57.7402C34.8843 57.2907 36.1647 56.714 36.8096 56.46C37.4545 56.2157 38.4411 55.8536 39.0078 55.668C39.5746 55.4823 40.6987 55.1603 41.5 54.9551C42.3109 54.7499 43.6002 54.4669 44.3818 54.3301C45.1635 54.1933 46.4146 54.0069 47.167 53.9287C48.0366 53.831 50.0302 53.7432 56.7822 53.6357L57.1436 52.6592C57.3488 52.1218 57.7401 51.1537 58.0234 50.5088C58.297 49.8639 58.7655 48.8284 59.0586 48.2129C59.3517 47.5973 59.9675 46.4048 60.4268 45.5742C60.886 44.7437 61.5506 43.5814 61.9219 42.9854C62.2834 42.3991 62.8504 41.5198 63.1729 41.0312C63.4952 40.5526 64.0515 39.7611 64.4033 39.2725C64.7551 38.7937 65.4587 37.8646 65.9668 37.2197C66.4749 36.5748 67.3259 35.5394 67.873 34.9238C68.4106 34.3082 69.6216 33.0278 70.5596 32.0898C71.5073 31.1519 72.8755 29.8725 73.5986 29.2471C74.3217 28.6217 75.3571 27.7708 75.8945 27.3506C76.432 26.9304 77.439 26.1878 78.1426 25.6895C78.8461 25.1911 79.9207 24.4679 80.5361 24.0771C81.1518 23.6863 82.2955 23.0032 83.0771 22.5635C83.8587 22.1238 85.0406 21.4787 85.7148 21.1465C86.3891 20.8143 87.5328 20.2668 88.2559 19.9443C88.9789 19.6317 90.2584 19.1037 91.0889 18.7812C91.9193 18.4686 93.2192 18.0099 93.9717 17.7656C94.7241 17.5213 96.0922 17.13 97.001 16.8955C97.9097 16.6512 99.1705 16.3585 99.7861 16.2217C100.402 16.0947 101.593 15.8692 102.424 15.7324C103.254 15.5956 104.535 15.42 105.258 15.332C105.981 15.2441 107.065 15.1465 107.651 15.0977C108.238 15.0586 110.095 15.0098 111.756 15ZM135.451 171.723C134.63 171.732 134.288 171.781 133.741 171.977C133.37 172.104 132.842 172.358 132.568 172.544C132.305 172.72 131.846 173.11 131.562 173.394C131.24 173.726 130.898 174.215 130.653 174.703C130.448 175.133 130.224 175.729 130.175 176.022C130.116 176.316 130.077 176.823 130.077 177.146C130.077 177.468 130.116 177.976 130.175 178.27C130.224 178.563 130.429 179.139 130.634 179.54C130.888 180.058 131.191 180.478 131.68 180.967C132.11 181.406 132.598 181.777 132.989 181.973C133.321 182.139 133.848 182.345 134.161 182.423C134.464 182.501 135.07 182.569 135.5 182.569C135.93 182.569 136.546 182.501 136.868 182.413C137.191 182.335 137.758 182.1 138.129 181.904C138.5 181.709 139.056 181.299 139.35 181.006C139.653 180.703 140.034 180.224 140.21 179.931C140.376 179.638 140.61 179.11 140.728 178.758C140.894 178.289 140.952 177.888 140.952 177.194C140.952 176.579 140.894 176.061 140.786 175.68C140.688 175.357 140.474 174.83 140.308 174.508C140.132 174.185 139.711 173.638 139.359 173.286C139.008 172.934 138.461 172.514 138.139 172.338C137.816 172.172 137.308 171.967 137.015 171.879C136.663 171.771 136.125 171.723 135.451 171.723ZM88.5977 171.752C87.562 171.723 87.3469 171.742 86.79 171.947C86.4383 172.065 85.9298 172.3 85.666 172.456C85.3924 172.603 84.9141 173.003 84.5918 173.325C84.2693 173.657 83.8683 174.185 83.6924 174.508C83.5264 174.83 83.3116 175.357 83.2139 175.68C83.1064 176.061 83.0479 176.589 83.0576 177.194C83.0576 177.927 83.1162 178.279 83.3115 178.855C83.4483 179.256 83.7118 179.804 83.8975 180.077C84.0733 180.341 84.4159 180.762 84.6504 180.996C84.8849 181.24 85.2949 181.572 85.5684 181.738C85.8322 181.914 86.3211 182.148 86.6436 182.275C87.0442 182.422 87.5231 182.511 88.1582 182.54C88.676 182.569 89.3212 182.54 89.624 182.481C89.9172 182.423 90.4931 182.217 90.8936 182.021C91.4211 181.767 91.8221 181.475 92.3301 180.967C92.8382 180.459 93.1219 180.077 93.376 179.54C93.5714 179.139 93.7666 178.563 93.8252 178.27C93.8838 177.976 93.9229 177.419 93.9229 177.048C93.9228 176.667 93.8545 176.101 93.7666 175.778C93.6884 175.456 93.464 174.908 93.2881 174.557C93.1024 174.205 92.7209 173.687 92.4375 173.394C92.1543 173.101 91.7052 172.72 91.4316 172.544C91.1678 172.358 90.6789 172.113 90.3564 171.996C89.907 171.83 89.5063 171.771 88.5977 171.752Z" fill="#00C950"/>
</svg>
